<mxfile host="app.diagrams.net" modified="2024-01-14T22:42:42.779Z" agent="Mozilla/5.0 (Windows NT 10.0; Win64; x64) AppleWebKit/537.36 (KHTML, like Gecko) Chrome/120.0.0.0 Safari/537.36 Edg/120.0.2210.77" etag="Gyes84tgu0fEGLm8OgUS" version="22.1.18" type="device">
  <diagram name="Seite-1" id="DDqtJV5-BpkDNAF-axh_">
    <mxGraphModel dx="2074" dy="1423" grid="1" gridSize="10" guides="1" tooltips="1" connect="1" arrows="1" fold="1" page="1" pageScale="1" pageWidth="827" pageHeight="1169" math="0" shadow="0">
      <root>
        <mxCell id="0" />
        <mxCell id="1" parent="0" />
        <mxCell id="HJ4BtOyCBD-qzpl9UXrd-1" value="Lecture" style="rounded=0;whiteSpace=wrap;html=1;" parent="1" vertex="1">
          <mxGeometry x="140" y="180" width="120" height="60" as="geometry" />
        </mxCell>
        <mxCell id="HJ4BtOyCBD-qzpl9UXrd-2" value="Name" style="ellipse;whiteSpace=wrap;html=1;" parent="1" vertex="1">
          <mxGeometry x="90" y="120" width="70" height="30" as="geometry" />
        </mxCell>
        <mxCell id="HJ4BtOyCBD-qzpl9UXrd-3" value="Attendance" style="rounded=0;whiteSpace=wrap;html=1;" parent="1" vertex="1">
          <mxGeometry x="440" y="180" width="120" height="60" as="geometry" />
        </mxCell>
        <mxCell id="HJ4BtOyCBD-qzpl9UXrd-4" value="Student" style="whiteSpace=wrap;html=1;" parent="1" vertex="1">
          <mxGeometry x="140" y="390" width="120" height="60" as="geometry" />
        </mxCell>
        <mxCell id="HJ4BtOyCBD-qzpl9UXrd-15" style="edgeStyle=orthogonalEdgeStyle;rounded=0;orthogonalLoop=1;jettySize=auto;html=1;exitX=0.5;exitY=1;exitDx=0;exitDy=0;entryX=0;entryY=0;entryDx=0;entryDy=0;" parent="1" source="HJ4BtOyCBD-qzpl9UXrd-5" target="HJ4BtOyCBD-qzpl9UXrd-1" edge="1">
          <mxGeometry relative="1" as="geometry" />
        </mxCell>
        <mxCell id="HJ4BtOyCBD-qzpl9UXrd-5" value="Name" style="ellipse;whiteSpace=wrap;html=1;" parent="1" vertex="1">
          <mxGeometry x="90" y="120" width="70" height="30" as="geometry" />
        </mxCell>
        <mxCell id="HJ4BtOyCBD-qzpl9UXrd-16" value="" style="edgeStyle=orthogonalEdgeStyle;rounded=0;orthogonalLoop=1;jettySize=auto;html=1;" parent="1" source="HJ4BtOyCBD-qzpl9UXrd-6" target="HJ4BtOyCBD-qzpl9UXrd-1" edge="1">
          <mxGeometry relative="1" as="geometry" />
        </mxCell>
        <mxCell id="HJ4BtOyCBD-qzpl9UXrd-6" value="Room" style="ellipse;whiteSpace=wrap;html=1;" parent="1" vertex="1">
          <mxGeometry x="210" y="120" width="70" height="30" as="geometry" />
        </mxCell>
        <mxCell id="HJ4BtOyCBD-qzpl9UXrd-13" value="" style="edgeStyle=orthogonalEdgeStyle;rounded=0;orthogonalLoop=1;jettySize=auto;html=1;" parent="1" source="HJ4BtOyCBD-qzpl9UXrd-8" target="HJ4BtOyCBD-qzpl9UXrd-1" edge="1">
          <mxGeometry relative="1" as="geometry" />
        </mxCell>
        <mxCell id="HJ4BtOyCBD-qzpl9UXrd-8" value="Online" style="ellipse;whiteSpace=wrap;html=1;" parent="1" vertex="1">
          <mxGeometry x="40" y="195" width="70" height="30" as="geometry" />
        </mxCell>
        <mxCell id="HJ4BtOyCBD-qzpl9UXrd-17" value="" style="edgeStyle=orthogonalEdgeStyle;rounded=0;orthogonalLoop=1;jettySize=auto;html=1;" parent="1" source="HJ4BtOyCBD-qzpl9UXrd-12" target="HJ4BtOyCBD-qzpl9UXrd-1" edge="1">
          <mxGeometry relative="1" as="geometry" />
        </mxCell>
        <mxCell id="HJ4BtOyCBD-qzpl9UXrd-12" value="Lecturer" style="ellipse;whiteSpace=wrap;html=1;" parent="1" vertex="1">
          <mxGeometry x="290" y="195" width="70" height="30" as="geometry" />
        </mxCell>
        <mxCell id="HJ4BtOyCBD-qzpl9UXrd-23" value="" style="edgeStyle=orthogonalEdgeStyle;rounded=0;orthogonalLoop=1;jettySize=auto;html=1;" parent="1" source="HJ4BtOyCBD-qzpl9UXrd-18" target="HJ4BtOyCBD-qzpl9UXrd-4" edge="1">
          <mxGeometry relative="1" as="geometry" />
        </mxCell>
        <mxCell id="HJ4BtOyCBD-qzpl9UXrd-18" value="Name" style="ellipse;whiteSpace=wrap;html=1;" parent="1" vertex="1">
          <mxGeometry x="165" y="330" width="70" height="30" as="geometry" />
        </mxCell>
        <mxCell id="0sPOpO7FCrP0u_S1fb0a-1" style="edgeStyle=orthogonalEdgeStyle;rounded=0;orthogonalLoop=1;jettySize=auto;html=1;exitX=0;exitY=0.5;exitDx=0;exitDy=0;entryX=1;entryY=0.5;entryDx=0;entryDy=0;" edge="1" parent="1" source="HJ4BtOyCBD-qzpl9UXrd-24" target="HJ4BtOyCBD-qzpl9UXrd-4">
          <mxGeometry relative="1" as="geometry" />
        </mxCell>
        <mxCell id="HJ4BtOyCBD-qzpl9UXrd-24" value="Course" style="ellipse;whiteSpace=wrap;html=1;" parent="1" vertex="1">
          <mxGeometry x="280" y="405" width="70" height="30" as="geometry" />
        </mxCell>
        <mxCell id="HJ4BtOyCBD-qzpl9UXrd-26" value="Status of Matriculation" style="ellipse;whiteSpace=wrap;html=1;" parent="1" vertex="1">
          <mxGeometry x="160" y="480" width="80" height="40" as="geometry" />
        </mxCell>
        <mxCell id="HJ4BtOyCBD-qzpl9UXrd-28" style="edgeStyle=orthogonalEdgeStyle;rounded=0;orthogonalLoop=1;jettySize=auto;html=1;exitX=0.5;exitY=0;exitDx=0;exitDy=0;entryX=0.5;entryY=1;entryDx=0;entryDy=0;" parent="1" source="HJ4BtOyCBD-qzpl9UXrd-26" target="HJ4BtOyCBD-qzpl9UXrd-4" edge="1">
          <mxGeometry relative="1" as="geometry">
            <mxPoint x="190" y="470" as="targetPoint" />
          </mxGeometry>
        </mxCell>
        <mxCell id="HJ4BtOyCBD-qzpl9UXrd-29" value="Course" style="ellipse;whiteSpace=wrap;html=1;" parent="1" vertex="1">
          <mxGeometry x="465" y="130" width="70" height="30" as="geometry" />
        </mxCell>
        <mxCell id="HJ4BtOyCBD-qzpl9UXrd-34" value="" style="edgeStyle=orthogonalEdgeStyle;rounded=0;orthogonalLoop=1;jettySize=auto;html=1;" parent="1" source="HJ4BtOyCBD-qzpl9UXrd-30" target="HJ4BtOyCBD-qzpl9UXrd-3" edge="1">
          <mxGeometry relative="1" as="geometry" />
        </mxCell>
        <mxCell id="HJ4BtOyCBD-qzpl9UXrd-30" value="Student" style="ellipse;whiteSpace=wrap;html=1;" parent="1" vertex="1">
          <mxGeometry x="465" y="280" width="70" height="30" as="geometry" />
        </mxCell>
        <mxCell id="HJ4BtOyCBD-qzpl9UXrd-32" style="edgeStyle=orthogonalEdgeStyle;rounded=0;orthogonalLoop=1;jettySize=auto;html=1;exitX=0.5;exitY=1;exitDx=0;exitDy=0;entryX=0.5;entryY=0.167;entryDx=0;entryDy=0;entryPerimeter=0;" parent="1" source="HJ4BtOyCBD-qzpl9UXrd-29" target="HJ4BtOyCBD-qzpl9UXrd-3" edge="1">
          <mxGeometry relative="1" as="geometry" />
        </mxCell>
        <mxCell id="HJ4BtOyCBD-qzpl9UXrd-36" value="" style="edgeStyle=orthogonalEdgeStyle;rounded=0;orthogonalLoop=1;jettySize=auto;html=1;" parent="1" source="HJ4BtOyCBD-qzpl9UXrd-35" target="HJ4BtOyCBD-qzpl9UXrd-3" edge="1">
          <mxGeometry relative="1" as="geometry" />
        </mxCell>
        <mxCell id="HJ4BtOyCBD-qzpl9UXrd-35" value="Date" style="ellipse;whiteSpace=wrap;html=1;" parent="1" vertex="1">
          <mxGeometry x="610" y="195" width="70" height="30" as="geometry" />
        </mxCell>
        <mxCell id="0sPOpO7FCrP0u_S1fb0a-2" value="AttendanceList" style="rounded=0;whiteSpace=wrap;html=1;" vertex="1" parent="1">
          <mxGeometry x="440" y="390" width="120" height="60" as="geometry" />
        </mxCell>
        <mxCell id="0sPOpO7FCrP0u_S1fb0a-4" value="" style="edgeStyle=orthogonalEdgeStyle;rounded=0;orthogonalLoop=1;jettySize=auto;html=1;" edge="1" parent="1" source="0sPOpO7FCrP0u_S1fb0a-3" target="0sPOpO7FCrP0u_S1fb0a-2">
          <mxGeometry relative="1" as="geometry" />
        </mxCell>
        <mxCell id="0sPOpO7FCrP0u_S1fb0a-3" value="Date" style="ellipse;whiteSpace=wrap;html=1;" vertex="1" parent="1">
          <mxGeometry x="460" y="340" width="70" height="30" as="geometry" />
        </mxCell>
        <mxCell id="0sPOpO7FCrP0u_S1fb0a-9" style="edgeStyle=orthogonalEdgeStyle;rounded=0;orthogonalLoop=1;jettySize=auto;html=1;exitX=0.5;exitY=0;exitDx=0;exitDy=0;entryX=0.5;entryY=1;entryDx=0;entryDy=0;" edge="1" parent="1" source="0sPOpO7FCrP0u_S1fb0a-5" target="0sPOpO7FCrP0u_S1fb0a-2">
          <mxGeometry relative="1" as="geometry" />
        </mxCell>
        <mxCell id="0sPOpO7FCrP0u_S1fb0a-5" value="List (Image)" style="ellipse;whiteSpace=wrap;html=1;" vertex="1" parent="1">
          <mxGeometry x="460" y="480" width="70" height="30" as="geometry" />
        </mxCell>
        <mxCell id="0sPOpO7FCrP0u_S1fb0a-11" style="edgeStyle=orthogonalEdgeStyle;rounded=0;orthogonalLoop=1;jettySize=auto;html=1;entryX=1;entryY=0.5;entryDx=0;entryDy=0;" edge="1" parent="1" source="0sPOpO7FCrP0u_S1fb0a-10" target="0sPOpO7FCrP0u_S1fb0a-2">
          <mxGeometry relative="1" as="geometry" />
        </mxCell>
        <mxCell id="0sPOpO7FCrP0u_S1fb0a-10" value="Course" style="ellipse;whiteSpace=wrap;html=1;" vertex="1" parent="1">
          <mxGeometry x="600" y="405" width="70" height="30" as="geometry" />
        </mxCell>
      </root>
    </mxGraphModel>
  </diagram>
</mxfile>
